<?xml version="1.0" encoding="iso-8859-1"?>
<!-- Generator: Adobe Illustrator 19.0.0, SVG Export Plug-In . SVG Version: 6.00 Build 0)  -->
<svg version="1.1" id="Layer_1" xmlns="http://www.w3.org/2000/svg" xmlns:xlink="http://www.w3.org/1999/xlink" x="0px" y="0px"
	 viewBox="0 0 512 512" style="enable-background:new 0 0 512 512;" xml:space="preserve">
<g>
	<g>
		<path d="M495.304,100.174c9.22,0,16.696-7.475,16.696-16.696V16.696C512,7.475,504.525,0,495.304,0H294.957
			c-9.22,0-16.696,7.475-16.696,16.696v66.783c0,9.22,7.475,16.696,16.696,16.696h50.087v44.522H222.609V94.609
			c0-9.22-7.475-16.696-16.696-16.696H105.739c-9.22,0-16.696,7.475-16.696,16.696v50.087H16.696C7.475,144.696,0,152.171,0,161.391
			c0,12.707,0,288.456,0,300.522C0,489.531,22.469,512,50.087,512h411.826C489.531,512,512,489.531,512,461.913
			c0-12.112,0-287.927,0-300.522c0-9.22-7.475-16.696-16.696-16.696h-50.087v-44.522H495.304z M122.435,111.304h66.783v100.174
			h-66.783V111.304z M478.609,461.913c0,9.206-7.49,16.696-16.696,16.696H50.087c-9.206,0-16.696-7.49-16.696-16.696v-83.478
			h133.565v50.087c0,9.22,7.475,16.696,16.696,16.696h144.696c9.22,0,16.696-7.475,16.696-16.696v-50.087h133.565V461.913z
			 M200.348,411.826v-33.391h111.304v33.391H200.348z M478.609,178.087v166.956c-8.414,0-428.023,0-445.217,0V178.087h55.652v33.391
			h-6.24c-9.22,0-16.696,7.475-16.696,16.696c0,9.22,7.475,16.696,16.696,16.696c16.86,0,128.492,0,144.696,0
			c9.22,0,16.696-7.475,16.696-16.696c0-9.22-7.475-16.696-16.696-16.696h-4.891v-33.391
			C233.082,178.087,467.395,178.087,478.609,178.087z M378.435,144.696v-44.522h33.391v44.522H378.435z M311.652,66.783V33.391
			h166.957v33.391C462.224,66.783,328.241,66.783,311.652,66.783z"/>
	</g>
</g>
<g>
	<g>
		<path d="M426.874,211.556c-9.463,0.982-16.632,9.748-14.726,19.879c1.819,8.763,10.086,14.899,19.634,13.112
			c8.4-1.752,13.434-8.97,13.434-16.373C445.217,218.626,437.054,210.622,426.874,211.556z"/>
	</g>
</g>
<g>
	<g>
		<path d="M378.357,226.527c-0.926-8.919-8.76-15.842-18.265-14.97c-9.222,0.957-15.884,9.161-14.959,18.265
			c0.744,8.914,9.084,15.911,18.254,14.97C372.978,243.797,379.25,235.218,378.357,226.527z"/>
	</g>
</g>
<g>
	<g>
		<path d="M293.309,211.556c-8.298,0.86-15.048,7.841-15.048,16.618c0,8.943,7.285,16.696,16.696,16.696
			c9.198,0,16.696-7.482,16.696-16.696C311.652,218.333,303.246,210.645,293.309,211.556z"/>
	</g>
</g>
<g>
	<g>
		<path d="M445.139,293.309c-0.943-9.081-9.052-15.896-18.265-14.959c-8.998,0.75-16.699,9.382-14.726,19.868
			c1.687,8.13,8.959,14.097,18.02,13.357C439.691,310.586,446.037,302.053,445.139,293.309z"/>
	</g>
</g>
<g>
	<g>
		<path d="M378.112,291.695c-1.755-8.415-9.481-14.214-18.02-13.345c-9.002,0.751-16.672,9.523-14.726,19.868
			c1.687,8.13,8.959,14.097,18.02,13.357C372.965,310.58,380.002,301.791,378.112,291.695z"/>
	</g>
</g>
<g>
	<g>
		<path d="M293.309,278.35c-8.543,0.712-15.94,8.71-14.97,18.254c0.904,8.71,8.22,15.048,16.618,15.048
			c9.373,0,16.696-7.714,16.696-16.696C311.652,285.291,303.244,277.339,293.309,278.35z"/>
	</g>
</g>
<g>
</g>
<g>
</g>
<g>
</g>
<g>
</g>
<g>
</g>
<g>
</g>
<g>
</g>
<g>
</g>
<g>
</g>
<g>
</g>
<g>
</g>
<g>
</g>
<g>
</g>
<g>
</g>
<g>
</g>
</svg>
